<svg width="18" height="18" viewBox="0 0 18 18" fill="none" xmlns="http://www.w3.org/2000/svg">
<path d="M8.9999 17.0625C8.9549 17.0625 8.9099 17.055 8.8724 17.0475C8.8274 17.04 8.7824 17.0175 8.7374 16.995L7.0799 16.17C6.8024 16.0275 6.6899 15.69 6.8249 15.4125C6.9674 15.135 7.3049 15.0225 7.5824 15.1575L8.4374 15.585V14.415C8.4374 14.1075 8.6924 13.8525 8.9999 13.8525C9.3074 13.8525 9.5624 14.1075 9.5624 14.415V15.585L10.4174 15.1575C10.6949 15.0225 11.0324 15.135 11.1749 15.4125C11.3174 15.69 11.2049 16.0275 10.9199 16.17L9.2624 16.995C9.2174 17.0175 9.1724 17.0325 9.1274 17.0475C9.0824 17.055 9.0449 17.0625 8.9999 17.0625ZM14.0024 14.565C13.7999 14.565 13.5974 14.4525 13.4999 14.2575C13.3574 13.98 13.4699 13.6425 13.7549 13.5L15.1124 12.825V11.0925C15.1124 10.785 15.3674 10.53 15.6749 10.53C15.9824 10.53 16.2374 10.785 16.2374 11.0925V13.1775C16.2374 13.3875 16.1174 13.5825 15.9299 13.68L14.2649 14.5125C14.1674 14.5425 14.0849 14.565 14.0024 14.565ZM3.9974 14.565C3.9149 14.565 3.8249 14.5425 3.7499 14.505L2.0849 13.6725C1.8974 13.575 1.7774 13.38 1.7774 13.17V11.085C1.7774 10.7775 2.0324 10.5225 2.3399 10.5225C2.6474 10.5225 2.9024 10.7775 2.9024 11.085V12.8175L4.2599 13.4925C4.5374 13.635 4.64989 13.9725 4.51489 14.25C4.40239 14.445 4.2074 14.565 3.9974 14.565ZM8.9999 10.815C8.6924 10.815 8.4374 10.56 8.4374 10.2525V8.51999L7.0799 7.84499C6.8024 7.70249 6.6899 7.36498 6.8249 7.08748C6.9674 6.80998 7.3049 6.69749 7.5824 6.83249L8.9999 7.53749L10.4174 6.83249C10.6949 6.69749 11.0324 6.80248 11.1749 7.08748C11.3174 7.37248 11.2049 7.70249 10.9199 7.84499L9.5624 8.51999V10.2525C9.5624 10.56 9.3074 10.815 8.9999 10.815ZM15.6674 7.47749C15.3599 7.47749 15.1049 7.22249 15.1049 6.91499V5.74499L14.2499 6.17248C13.9724 6.31498 13.6349 6.20248 13.4924 5.91748C13.3499 5.63998 13.4624 5.30249 13.7474 5.15999L14.4074 4.82999L13.7474 4.49998C13.4699 4.35749 13.3574 4.01999 13.4924 3.74249C13.6349 3.46499 13.9724 3.35248 14.2499 3.48748L15.9074 4.31248C15.9224 4.31999 15.9449 4.32748 15.9599 4.34248C16.0049 4.36498 16.0424 4.40248 16.0799 4.43998C16.1024 4.46998 16.1249 4.49998 16.1474 4.52998C16.1774 4.58248 16.1999 4.63498 16.2149 4.69498C16.2224 4.73998 16.2299 4.78498 16.2299 4.82248V4.82999V6.89998C16.2299 7.22998 15.9749 7.47749 15.6674 7.47749ZM2.3324 7.47749C2.0249 7.47749 1.7699 7.22249 1.7699 6.91499V4.84499V4.83748C1.7699 4.79248 1.77739 4.74748 1.78489 4.70998C1.79989 4.64998 1.8224 4.59748 1.8524 4.54498C1.8749 4.50748 1.8974 4.47748 1.9274 4.44748C1.9574 4.41748 1.9949 4.38749 2.0324 4.36499C2.0474 4.35749 2.0699 4.34248 2.0849 4.33498L3.7424 3.50998C4.0199 3.37498 4.3574 3.47999 4.4999 3.76499C4.6424 4.04999 4.5299 4.37998 4.2449 4.52248L3.5849 4.85249L4.2449 5.18249C4.5224 5.32499 4.6349 5.66248 4.4999 5.93998C4.3574 6.21748 4.0274 6.32998 3.7424 6.19498L2.8874 5.76749V6.93749C2.8949 7.22999 2.6474 7.47749 2.3324 7.47749ZM10.6649 2.89499C10.5824 2.89499 10.4924 2.87248 10.4174 2.83498L8.9999 2.12998L7.5824 2.83498C7.3049 2.97748 6.9674 2.86499 6.8249 2.57999C6.6824 2.30249 6.7949 1.96498 7.0799 1.82248L8.7449 0.989991C8.9024 0.907491 9.0899 0.907491 9.2474 0.989991L10.9124 1.82248C11.1899 1.96498 11.3024 2.30249 11.1674 2.57999C11.0699 2.78249 10.8749 2.89499 10.6649 2.89499Z" fill="black"/>
</svg>
