<svg width="20" height="20" viewBox="0 0 20 20" fill="none" xmlns="http://www.w3.org/2000/svg">
<path d="M7.97498 15.6833C8.13332 15.6833 8.29165 15.625 8.41665 15.5C8.65832 15.2583 8.65832 14.8583 8.41665 14.6167L3.79998 10L8.41665 5.38334C8.65832 5.14167 8.65832 4.74167 8.41665 4.50001C8.17498 4.25834 7.77498 4.25834 7.53332 4.50001L2.47498 9.55834C2.23332 9.80001 2.23332 10.2 2.47498 10.4417L7.53332 15.5C7.65832 15.625 7.81665 15.6833 7.97498 15.6833Z" fill="#292D32"/>
<path d="M3.05831 10.625H17.0833C17.425 10.625 17.7083 10.3417 17.7083 10C17.7083 9.65833 17.425 9.375 17.0833 9.375H3.05831C2.71665 9.375 2.43331 9.65833 2.43331 10C2.43331 10.3417 2.71665 10.625 3.05831 10.625Z" fill="#292D32"/>
</svg>
